<svg width="60" height="23" fill="none" xmlns="http://www.w3.org/2000/svg"><path d="M57.423 8.604a7.036 7.036 0 0 0 1.645-1.709 6.227 6.227 0 0 1-1.898.507 3.246 3.246 0 0 0 1.455-1.836c-.633.38-1.36.665-2.088.823a3.322 3.322 0 0 0-2.436-1.044 3.322 3.322 0 0 0-3.323 3.322c0 .253.032.506.095.76a9.64 9.64 0 0 1-6.866-3.48 3.232 3.232 0 0 0-.443 1.676c0 1.14.57 2.152 1.487 2.753-.537-.032-1.075-.158-1.518-.412v.032a3.326 3.326 0 0 0 2.657 3.26c-.253.062-.569.126-.854.126-.221 0-.411-.032-.633-.064a3.306 3.306 0 0 0 3.101 2.31 6.68 6.68 0 0 1-4.113 1.424c-.285 0-.538-.032-.791-.063 1.455.949 3.196 1.487 5.094 1.487 6.107 0 9.429-5.031 9.429-9.43v-.442Z" fill="#111928"/></svg>