<svg width="23" height="23" fill="none" xmlns="http://www.w3.org/2000/svg"><path d="M11.147 3.545c-4.335 0-7.847 3.543-7.847 7.847a7.845 7.845 0 0 0 7.847 7.846c4.303 0 7.847-3.512 7.847-7.846 0-4.304-3.544-7.847-7.847-7.847Zm5.157 3.638a6.503 6.503 0 0 1 1.52 4.177c-.222-.063-2.437-.506-4.652-.222-.19-.443-.348-.822-.601-1.328 2.5-1.013 3.607-2.437 3.733-2.627Zm-.727-.79c-.127.19-1.14 1.55-3.512 2.436a36.365 36.365 0 0 0-2.5-3.924 6.713 6.713 0 0 1 6.012 1.487Zm-7.31-1.045c.19.253 1.393 1.899 2.5 3.892-3.132.823-5.885.823-6.201.791a6.79 6.79 0 0 1 3.702-4.683ZM4.44 11.423v-.221c.285.031 3.544.063 6.866-.95.222.38.38.76.57 1.14-2.437.696-4.652 2.657-5.727 4.492-1.076-1.17-1.709-2.752-1.709-4.46Zm2.563 5.284c.728-1.424 2.626-3.29 5.316-4.208.949 2.436 1.329 4.493 1.424 5.094a6.703 6.703 0 0 1-6.74-.886Zm7.878.253c-.063-.38-.443-2.341-1.297-4.777 2.088-.317 3.924.221 4.177.284a6.832 6.832 0 0 1-2.88 4.493Z" fill="#111928"/></svg>