<svg width="69" height="37" fill="none" xmlns="http://www.w3.org/2000/svg"><path d="M34.5 37c-9.076 0-17.654-1.825-24.119-5.223C3.668 28.317 0 23.597 0 18.5c0-5.097 3.668-9.816 10.381-13.277C16.846 1.825 25.424 0 34.5 0s17.654 1.825 24.119 5.223C65.332 8.683 69 13.466 69 18.563c0 5.097-3.668 9.753-10.381 13.277C52.154 35.175 43.576 37 34.5 37Zm0-34.546c-8.703 0-16.846 1.762-23 4.908C5.657 10.446 2.424 14.41 2.424 18.5s3.233 8.054 9.076 11.138c6.092 3.146 14.297 4.908 23 4.908s16.846-1.762 23-4.908c5.843-3.02 9.076-6.985 9.076-11.138S63.343 10.446 57.5 7.362c-6.154-3.146-14.297-4.908-23-4.908Z" fill="#000"/><path d="M50.29 10.634c.745.378 1.367 1.007 1.864 1.762.497.818.808 1.7.87 2.832l-2.051.63c-.124-1.134-.497-2.014-1.181-2.644-.684-.629-1.492-.944-2.549-.944s-1.927.252-2.735.818c-.746.504-1.367 1.259-1.74 2.266a9.802 9.802 0 0 0-.622 3.46v7.614h-2.362v-15.73h2.051l.187 2.894c.559-1.07 1.243-1.95 2.175-2.58.933-.63 1.99-.944 3.233-.944 1.18-.063 2.051.126 2.86.566ZM37.235 24.289a2.661 2.661 0 0 1-.746.692l-.373.189c-.621.252-1.18.126-1.492-.252-.248-.252-.373-.566-.373-1.007v-2.517h-2.3l-1.802 1.574c-.56.503-1.244.88-2.052 1.195-1.18.503-2.548.755-4.04.755-1.554 0-2.798-.252-3.73-.692-.87-.503-1.368-1.133-1.368-1.95 0-.819.498-1.51 1.492-2.014.995-.504 2.487-.881 4.6-1.133l6.838-.566c1.368-.126 2.362-1.259 2.362-2.643v-.063c0-1.196-.373-2.265-1.056-3.083-.684-.881-1.679-1.51-2.922-2.014a12.21 12.21 0 0 0-4.103-.692c-1.43 0-2.735.189-4.04.63a14.71 14.71 0 0 0-3.295 1.635c-.932.692-1.554 1.447-1.865 2.265l1.74 1.196c.312-.63.809-1.258 1.493-1.762.746-.566 1.616-1.007 2.673-1.321 1.056-.315 2.113-.504 3.232-.504 1.119 0 2.114.126 2.984.378.87.252 1.616.63 2.113 1.132.498.504.746 1.07.746 1.7 0 .377-.124.629-.373.818-.248.188-.56.314-.932.314l-5.781.567c-2.735.314-4.787.88-6.154 1.761-1.368.881-2.052 2.077-2.052 3.461 0 .944.311 1.762.87 2.454.56.692 1.368 1.259 2.425 1.636 1.057.378 2.362.567 3.792.567 1.181 0 2.362-.126 3.419-.44a11.477 11.477 0 0 0 2.797-1.26c.808-.566 1.368-1.069 1.803-1.824l.248-.063-.062.63c0 .628.125 1.132.373 1.572.249.44.622.756 1.12 1.07.434.252.994.378 1.553.378.684 0 1.368-.126 1.99-.44a3.178 3.178 0 0 0 1.43-1.26l-1.182-1.069Z" fill="#000"/></svg>