<svg width="70" height="38" fill="none" xmlns="http://www.w3.org/2000/svg"><path d="M34.65 37.845c-9.076 0-17.654-1.825-24.119-5.223C3.817 29.162.15 24.442.15 19.345c0-5.097 3.667-9.816 10.381-13.277C16.996 2.67 25.574.845 34.65.845S52.304 2.67 58.769 6.068c6.713 3.46 10.38 8.243 10.38 13.34 0 5.097-3.667 9.753-10.38 13.277-6.465 3.335-15.043 5.16-24.12 5.16Zm0-34.546c-8.703 0-16.846 1.762-23 4.908-5.843 3.084-9.076 7.048-9.076 11.138S5.807 27.4 11.65 30.483c6.092 3.146 14.297 4.908 23 4.908s16.846-1.762 23-4.908c5.843-3.02 9.076-6.985 9.076-11.138s-3.233-8.054-9.076-11.138C51.496 5.061 43.353 3.3 34.65 3.3Z" fill="#000"/><path d="M50.439 11.48c.746.377 1.368 1.006 1.865 1.761.497.818.808 1.7.87 2.832l-2.051.63c-.124-1.133-.497-2.014-1.181-2.644-.684-.629-1.492-.943-2.549-.943s-1.927.251-2.735.818c-.746.503-1.368 1.258-1.74 2.265a9.802 9.802 0 0 0-.622 3.46v7.615h-2.362V11.542h2.05l.187 2.895c.56-1.07 1.244-1.95 2.176-2.58.932-.63 1.99-.944 3.233-.944 1.18-.063 2.05.126 2.859.566ZM37.385 25.134a2.663 2.663 0 0 1-.746.692l-.373.19c-.621.25-1.181.125-1.492-.253-.248-.251-.373-.566-.373-1.006V22.24h-2.3L30.3 23.813c-.56.503-1.244.88-2.052 1.195-1.18.504-2.549.755-4.04.755-1.554 0-2.798-.251-3.73-.692-.87-.503-1.368-1.132-1.368-1.95 0-.819.498-1.51 1.492-2.014.995-.503 2.487-.881 4.6-1.133l6.838-.566c1.368-.126 2.362-1.259 2.362-2.643v-.063c0-1.195-.373-2.265-1.057-3.083-.683-.881-1.678-1.51-2.921-2.014a12.207 12.207 0 0 0-4.103-.692c-1.43 0-2.735.189-4.04.63a14.71 14.71 0 0 0-3.295 1.635c-.932.693-1.554 1.448-1.865 2.266l1.74 1.195c.312-.629.809-1.258 1.493-1.762.745-.566 1.616-1.006 2.672-1.321 1.057-.315 2.114-.503 3.233-.503 1.119 0 2.114.125 2.984.377.87.252 1.616.63 2.113 1.133.498.503.746 1.07.746 1.699 0 .377-.124.629-.373.818-.248.189-.56.314-.932.314l-5.781.567c-2.735.314-4.787.88-6.154 1.762-1.368.88-2.052 2.076-2.052 3.46 0 .944.311 1.762.87 2.455.56.692 1.368 1.258 2.425 1.636 1.057.377 2.362.566 3.792.566 1.18 0 2.362-.126 3.419-.44a11.473 11.473 0 0 0 2.797-1.259c.808-.566 1.368-1.07 1.803-1.825l.248-.063-.062.63c0 .629.124 1.132.373 1.573.249.44.622.755 1.12 1.07.434.251.994.377 1.553.377.684 0 1.368-.126 1.99-.44a3.178 3.178 0 0 0 1.43-1.26l-1.182-1.069Z" fill="#000"/></svg>