<svg width="1460" height="16" fill="none" xmlns="http://www.w3.org/2000/svg"><path d="M1.429 8.574 8.5 1.503l7.071 7.071" stroke="#000" stroke-width="2"/><path d="M14.429 8.574 21.5 1.503l7.071 7.071" stroke="#000" stroke-width="2"/><path d="M27.429 8.574 34.5 1.503l7.071 7.071" stroke="#000" stroke-width="2"/><path d="M40.429 8.574 47.5 1.503l7.071 7.071" stroke="#000" stroke-width="2"/><path d="M53.429 8.574 60.5 1.503l7.071 7.071" stroke="#000" stroke-width="2"/><path d="M66.429 8.574 73.5 1.503l7.071 7.071" stroke="#000" stroke-width="2"/><path d="M79.429 8.574 86.5 1.503l7.071 7.071" stroke="#000" stroke-width="2"/><path d="M92.429 8.574 99.5 1.503l7.071 7.071" stroke="#000" stroke-width="2"/><path d="m105.429 8.574 7.071-7.071 7.071 7.071" stroke="#000" stroke-width="2"/><path d="m118.429 8.574 7.071-7.071 7.071 7.071" stroke="#000" stroke-width="2"/><path d="m131.429 8.574 7.071-7.071 7.071 7.071" stroke="#000" stroke-width="2"/><path d="m144.429 8.574 7.071-7.071 7.071 7.071" stroke="#000" stroke-width="2"/><path d="m157.429 8.574 7.071-7.071 7.071 7.071" stroke="#000" stroke-width="2"/><path d="m170.429 8.574 7.071-7.071 7.071 7.071" stroke="#000" stroke-width="2"/><path d="m183.429 8.574 7.071-7.071 7.071 7.071" stroke="#000" stroke-width="2"/><path d="m196.429 8.574 7.071-7.071 7.071 7.071" stroke="#000" stroke-width="2"/><path d="m209.429 8.574 7.071-7.071 7.071 7.071" stroke="#000" stroke-width="2"/><path d="m222.429 8.574 7.071-7.071 7.071 7.071" stroke="#000" stroke-width="2"/><path d="m235.429 8.574 7.071-7.071 7.071 7.071" stroke="#000" stroke-width="2"/><path d="m248.429 8.574 7.071-7.071 7.071 7.071" stroke="#000" stroke-width="2"/><path d="m261.429 8.574 7.071-7.071 7.071 7.071" stroke="#000" stroke-width="2"/><path d="m274.429 8.574 7.071-7.071 7.071 7.071" stroke="#000" stroke-width="2"/><path d="m287.429 8.574 7.071-7.071 7.071 7.071" stroke="#000" stroke-width="2"/><path d="m300.429 8.574 7.071-7.071 7.071 7.071" stroke="#000" stroke-width="2"/><path d="m313.429 8.574 7.071-7.071 7.071 7.071" stroke="#000" stroke-width="2"/><path d="m326.429 8.574 7.071-7.071 7.071 7.071" stroke="#000" stroke-width="2"/><path d="m339.429 8.574 7.071-7.071 7.071 7.071" stroke="#000" stroke-width="2"/><path d="m352.429 8.574 7.071-7.071 7.071 7.071" stroke="#000" stroke-width="2"/><path d="m365.429 8.574 7.071-7.071 7.071 7.071" stroke="#000" stroke-width="2"/><path d="m378.429 8.574 7.071-7.071 7.071 7.071" stroke="#000" stroke-width="2"/><path d="m391.429 8.574 7.071-7.071 7.071 7.071" stroke="#000" stroke-width="2"/><path d="m404.429 8.574 7.071-7.071 7.071 7.071" stroke="#000" stroke-width="2"/><path d="m417.429 8.574 7.071-7.071 7.071 7.071" stroke="#000" stroke-width="2"/><path d="m430.429 8.574 7.071-7.071 7.071 7.071" stroke="#000" stroke-width="2"/><path d="m443.429 8.574 7.071-7.071 7.071 7.071" stroke="#000" stroke-width="2"/><path d="m456.429 8.574 7.071-7.071 7.071 7.071" stroke="#000" stroke-width="2"/><path d="m469.429 8.574 7.071-7.071 7.071 7.071" stroke="#000" stroke-width="2"/><path d="m482.429 8.574 7.071-7.071 7.071 7.071" stroke="#000" stroke-width="2"/><path d="m495.429 8.574 7.071-7.071 7.071 7.071" stroke="#000" stroke-width="2"/><path d="m508.429 8.574 7.071-7.071 7.071 7.071" stroke="#000" stroke-width="2"/><path d="m521.429 8.574 7.071-7.071 7.071 7.071" stroke="#000" stroke-width="2"/><path d="m534.429 8.574 7.071-7.071 7.071 7.071" stroke="#000" stroke-width="2"/><path d="m547.429 8.574 7.071-7.071 7.071 7.071" stroke="#000" stroke-width="2"/><path d="m560.429 8.574 7.071-7.071 7.071 7.071" stroke="#000" stroke-width="2"/><path d="m573.429 8.574 7.071-7.071 7.071 7.071" stroke="#000" stroke-width="2"/><path d="m586.429 8.574 7.071-7.071 7.071 7.071" stroke="#000" stroke-width="2"/><path d="m599.429 8.574 7.071-7.071 7.071 7.071" stroke="#000" stroke-width="2"/><path d="m612.429 8.574 7.071-7.071 7.071 7.071" stroke="#000" stroke-width="2"/><path d="m625.429 8.574 7.071-7.071 7.071 7.071" stroke="#000" stroke-width="2"/><path d="m638.429 8.574 7.071-7.071 7.071 7.071" stroke="#000" stroke-width="2"/><path d="m651.429 8.574 7.071-7.071 7.071 7.071" stroke="#000" stroke-width="2"/><path d="m664.429 8.574 7.071-7.071 7.071 7.071" stroke="#000" stroke-width="2"/><path d="m677.429 8.574 7.071-7.071 7.071 7.071" stroke="#000" stroke-width="2"/><path d="m690.429 8.574 7.071-7.071 7.071 7.071" stroke="#000" stroke-width="2"/><path d="m703.429 8.574 7.071-7.071 7.071 7.071" stroke="#000" stroke-width="2"/><path d="m716.429 8.574 7.071-7.071 7.071 7.071" stroke="#000" stroke-width="2"/><path d="m729.429 8.574 7.071-7.071 7.071 7.071" stroke="#000" stroke-width="2"/><path d="m742.429 8.574 7.071-7.071 7.071 7.071" stroke="#000" stroke-width="2"/><path d="m755.429 8.574 7.071-7.071 7.071 7.071" stroke="#000" stroke-width="2"/><path d="m768.429 8.574 7.071-7.071 7.071 7.071" stroke="#000" stroke-width="2"/><path d="m781.429 8.574 7.071-7.071 7.071 7.071" stroke="#000" stroke-width="2"/><path d="m794.429 8.574 7.071-7.071 7.071 7.071" stroke="#000" stroke-width="2"/><path d="m807.429 8.574 7.071-7.071 7.071 7.071" stroke="#000" stroke-width="2"/><path d="m820.429 8.574 7.071-7.071 7.071 7.071" stroke="#000" stroke-width="2"/><path d="m833.429 8.574 7.071-7.071 7.071 7.071" stroke="#000" stroke-width="2"/><path d="m846.429 8.574 7.071-7.071 7.071 7.071" stroke="#000" stroke-width="2"/><path d="m859.429 8.574 7.071-7.071 7.071 7.071" stroke="#000" stroke-width="2"/><path d="m872.429 8.574 7.071-7.071 7.071 7.071" stroke="#000" stroke-width="2"/><path d="m885.429 8.574 7.071-7.071 7.071 7.071" stroke="#000" stroke-width="2"/><path d="m898.429 8.574 7.071-7.071 7.071 7.071" stroke="#000" stroke-width="2"/><path d="m911.429 8.574 7.071-7.071 7.071 7.071" stroke="#000" stroke-width="2"/><path d="m924.429 8.574 7.071-7.071 7.071 7.071" stroke="#000" stroke-width="2"/><path d="m937.429 8.574 7.071-7.071 7.071 7.071" stroke="#000" stroke-width="2"/><path d="m950.429 8.574 7.071-7.071 7.071 7.071" stroke="#000" stroke-width="2"/><path d="m963.429 8.574 7.071-7.071 7.071 7.071" stroke="#000" stroke-width="2"/><path d="m976.429 8.574 7.071-7.071 7.071 7.071" stroke="#000" stroke-width="2"/><path d="m989.429 8.574 7.071-7.071 7.07 7.071" stroke="#000" stroke-width="2"/><path d="m1002.43 8.574 7.07-7.071 7.07 7.071" stroke="#000" stroke-width="2"/><path d="m1015.43 8.574 7.07-7.071 7.07 7.071" stroke="#000" stroke-width="2"/><path d="m1028.43 8.574 7.07-7.071 7.07 7.071" stroke="#000" stroke-width="2"/><path d="m1041.43 8.574 7.07-7.071 7.07 7.071" stroke="#000" stroke-width="2"/><path d="m1054.43 8.574 7.07-7.071 7.07 7.071" stroke="#000" stroke-width="2"/><path d="m1067.43 8.574 7.07-7.071 7.07 7.071" stroke="#000" stroke-width="2"/><path d="m1080.43 8.574 7.07-7.071 7.07 7.071" stroke="#000" stroke-width="2"/><path d="m1093.43 8.574 7.07-7.071 7.07 7.071" stroke="#000" stroke-width="2"/><path d="m1106.43 8.574 7.07-7.071 7.07 7.071" stroke="#000" stroke-width="2"/><path d="m1119.43 8.574 7.07-7.071 7.07 7.071" stroke="#000" stroke-width="2"/><path d="m1132.43 8.574 7.07-7.071 7.07 7.071" stroke="#000" stroke-width="2"/><path d="m1145.43 8.574 7.07-7.071 7.07 7.071" stroke="#000" stroke-width="2"/><path d="m1158.43 8.574 7.07-7.071 7.07 7.071" stroke="#000" stroke-width="2"/><path d="m1171.43 8.574 7.07-7.071 7.07 7.071" stroke="#000" stroke-width="2"/><path d="m1184.43 8.574 7.07-7.071 7.07 7.071" stroke="#000" stroke-width="2"/><path d="m1197.43 8.574 7.07-7.071 7.07 7.071" stroke="#000" stroke-width="2"/><path d="m1210.43 8.574 7.07-7.071 7.07 7.071" stroke="#000" stroke-width="2"/><path d="m1223.43 8.574 7.07-7.071 7.07 7.071" stroke="#000" stroke-width="2"/><path d="m1236.43 8.574 7.07-7.071 7.07 7.071" stroke="#000" stroke-width="2"/><path d="m1249.43 8.574 7.07-7.071 7.07 7.071" stroke="#000" stroke-width="2"/><path d="m1262.43 8.574 7.07-7.071 7.07 7.071" stroke="#000" stroke-width="2"/><path d="m1275.43 8.574 7.07-7.071 7.07 7.071" stroke="#000" stroke-width="2"/><path d="m1288.43 8.574 7.07-7.071 7.07 7.071" stroke="#000" stroke-width="2"/><path d="m1301.43 8.574 7.07-7.071 7.07 7.071" stroke="#000" stroke-width="2"/><path d="m1314.43 8.574 7.07-7.071 7.07 7.071" stroke="#000" stroke-width="2"/><path d="m1327.43 8.574 7.07-7.071 7.07 7.071" stroke="#000" stroke-width="2"/><path d="m1340.43 8.574 7.07-7.071 7.07 7.071" stroke="#000" stroke-width="2"/><path d="m1353.43 8.574 7.07-7.071 7.07 7.071" stroke="#000" stroke-width="2"/><path d="m1366.43 8.574 7.07-7.071 7.07 7.071" stroke="#000" stroke-width="2"/><path d="m1379.43 8.574 7.07-7.071 7.07 7.071" stroke="#000" stroke-width="2"/><path d="m1392.43 8.574 7.07-7.071 7.07 7.071" stroke="#000" stroke-width="2"/><path d="m1405.43 8.574 7.07-7.071 7.07 7.071" stroke="#000" stroke-width="2"/><path d="m1418.43 8.574 7.07-7.071 7.07 7.071" stroke="#000" stroke-width="2"/><path d="m1431.43 8.574 7.07-7.071 7.07 7.071" stroke="#000" stroke-width="2"/><path d="m1444.43 8.574 7.07-7.071 7.07 7.071" stroke="#000" stroke-width="2"/></svg>