<svg width="60" height="23" viewBox="0 0 60 23" fill="none" xmlns="http://www.w3.org/2000/svg">
<path d="M57.4229 8.60395C58.0558 8.12935 58.6253 7.55981 59.0683 6.89536C58.4987 7.14849 57.8343 7.33833 57.1698 7.40161C57.8659 6.99028 58.3722 6.35747 58.6253 5.56646C57.9925 5.94614 57.2647 6.23091 56.537 6.38911C55.9042 5.72466 55.0499 5.34497 54.1007 5.34497C52.2655 5.34497 50.7784 6.83208 50.7784 8.66724C50.7784 8.92036 50.8101 9.17349 50.8733 9.42661C48.1206 9.26841 45.6526 7.9395 44.0073 5.94614C43.7226 6.42075 43.5644 6.99028 43.5644 7.6231C43.5644 8.76216 44.1339 9.77466 45.0515 10.3758C44.5136 10.3442 43.9757 10.2176 43.5327 9.9645V9.99614C43.5327 11.6098 44.6718 12.9387 46.1905 13.2551C45.9374 13.3184 45.621 13.3817 45.3362 13.3817C45.1147 13.3817 44.9249 13.35 44.7034 13.3184C45.1147 14.6473 46.3487 15.5965 47.8042 15.6282C46.6651 16.5141 45.2413 17.052 43.6909 17.052C43.4062 17.052 43.153 17.0204 42.8999 16.9887C44.3554 17.9379 46.0956 18.4758 47.994 18.4758C54.1007 18.4758 57.4229 13.445 57.4229 9.04692C57.4229 8.88872 57.4229 8.76216 57.4229 8.60395Z" fill="#111928"/>
</svg>
