<svg width="23" height="23" viewBox="0 0 23 23" fill="none" xmlns="http://www.w3.org/2000/svg">
<path d="M11.1469 3.54468C6.81216 3.54468 3.30005 7.08843 3.30005 11.3916C3.30005 15.7263 6.81216 19.2384 11.1469 19.2384C15.45 19.2384 18.9938 15.7263 18.9938 11.3916C18.9938 7.08843 15.45 3.54468 11.1469 3.54468ZM16.3043 7.18335C17.2536 8.32241 17.8231 9.77788 17.8231 11.3599C17.6016 11.2966 15.3868 10.8537 13.1719 11.1384C12.9821 10.6955 12.8239 10.3158 12.5708 9.80952C15.0704 8.79702 16.1778 7.37319 16.3043 7.18335ZM15.5766 6.39233C15.45 6.58218 14.4375 7.94272 12.0645 8.82866C10.9571 6.80366 9.75474 5.15835 9.56489 4.90522C11.6848 4.39897 13.9313 4.93687 15.5766 6.39233ZM8.26763 5.34819C8.45747 5.60132 9.65981 7.24663 10.7672 9.23999C7.63481 10.0626 4.88208 10.0626 4.56567 10.031C5.00864 7.97437 6.40083 6.23413 8.26763 5.34819ZM4.43911 11.4232C4.43911 11.3599 4.43911 11.2966 4.43911 11.2017C4.72388 11.2333 7.98286 11.265 11.3051 10.2525C11.5266 10.6322 11.6848 11.0119 11.8747 11.3916C9.43833 12.0876 7.22349 14.0494 6.14771 15.8845C5.07192 14.7138 4.43911 13.1318 4.43911 11.4232ZM7.002 16.7072C7.72974 15.2834 9.62817 13.4166 12.3176 12.499C13.2668 14.9353 13.6465 16.9919 13.7415 17.5931C11.5899 18.5107 8.99536 18.2576 7.002 16.7072ZM14.8805 16.9603C14.8172 16.5806 14.4375 14.6189 13.5833 12.1826C15.6715 11.8662 17.5067 12.4041 17.7598 12.4673C17.4434 14.3341 16.3676 15.9478 14.8805 16.9603Z" fill="#111928"/>
</svg>
