<svg width="70" height="38" viewBox="0 0 70 38" fill="none" xmlns="http://www.w3.org/2000/svg">
<path d="M34.6499 37.8452C25.5742 37.8452 16.9958 36.0204 10.531 32.6224C3.81747 29.1615 0.149902 24.4422 0.149902 19.3452C0.149902 14.2483 3.81747 9.52889 10.531 6.068C16.9958 2.67004 25.5742 0.845215 34.6499 0.845215C43.7256 0.845215 52.304 2.67004 58.7688 6.068C65.4823 9.52889 69.1499 14.3112 69.1499 19.4081C69.1499 24.5051 65.4823 29.1615 58.7688 32.6854C52.304 36.0204 43.7256 37.8452 34.6499 37.8452ZM34.6499 3.2993C25.9472 3.2993 17.804 5.0612 11.6499 8.20746C5.80666 11.2908 2.57423 15.2551 2.57423 19.3452C2.57423 23.4354 5.80666 27.3996 11.6499 30.483C17.7418 33.6292 25.9472 35.3911 34.6499 35.3911C43.3526 35.3911 51.4958 33.6292 57.6499 30.483C63.4931 27.4626 66.7256 23.4983 66.7256 19.3452C66.7256 15.1922 63.4931 11.2908 57.6499 8.20746C51.4958 5.0612 43.3526 3.2993 34.6499 3.2993Z" fill="black"/>
<path d="M50.439 11.4795C51.1849 11.857 51.8066 12.4863 52.3039 13.2414C52.8012 14.0594 53.112 14.9404 53.1741 16.073L51.1228 16.7023C50.9985 15.5696 50.6255 14.6887 49.9417 14.0594C49.2579 13.4302 48.4498 13.1155 47.3931 13.1155C46.3363 13.1155 45.466 13.3672 44.6579 13.9336C43.912 14.437 43.2904 15.1921 42.9174 16.1989C42.5444 17.2057 42.2958 18.3383 42.2958 19.6598V27.2737H39.9336V11.5424H41.9849L42.1714 14.437C42.7309 13.3672 43.4147 12.4863 44.3471 11.857C45.2795 11.2278 46.3363 10.9132 47.5795 10.9132C48.7606 10.8502 49.6309 11.039 50.439 11.4795Z" fill="black"/>
<path d="M37.385 25.1342C37.1985 25.3859 36.9499 25.6376 36.6391 25.8264C36.5147 25.8893 36.3904 25.9522 36.2661 26.0151C35.6445 26.2668 35.085 26.141 34.7742 25.7634C34.5255 25.5117 34.4012 25.1971 34.4012 24.7566V22.2396H32.1012L30.2985 23.8127C29.7391 24.3161 29.0553 24.6937 28.2472 25.0083C27.0661 25.5117 25.6985 25.7634 24.2066 25.7634C22.6526 25.7634 21.4093 25.5117 20.4769 25.0713C19.6066 24.5678 19.1093 23.9386 19.1093 23.1206C19.1093 22.3025 19.6066 21.6104 20.6012 21.107C21.5958 20.6036 23.0877 20.226 25.2012 19.9743L32.0391 19.408C33.4066 19.2821 34.4012 18.1495 34.4012 16.7651V16.7022C34.4012 15.5066 34.0282 14.4369 33.3445 13.6189C32.6607 12.7379 31.6661 12.1087 30.4228 11.6053C29.1796 11.1648 27.812 10.9131 26.3201 10.9131C24.8904 10.9131 23.585 11.1019 22.2796 11.5423C21.0364 11.9828 19.9174 12.5491 18.985 13.1784C18.0526 13.8706 17.4309 14.6257 17.1201 15.4437L18.8607 16.6393C19.1715 16.01 19.6688 15.3808 20.3526 14.8774C21.0985 14.311 21.9688 13.8706 23.0255 13.5559C24.0823 13.2413 25.1391 13.0525 26.258 13.0525C27.3769 13.0525 28.3715 13.1784 29.2418 13.4301C30.112 13.6818 30.858 14.0593 31.3553 14.5627C31.8526 15.0661 32.1012 15.6325 32.1012 16.2617C32.1012 16.6393 31.9769 16.891 31.7282 17.0798C31.4796 17.2685 31.1688 17.3944 30.7958 17.3944L25.0147 17.9607C22.2796 18.2753 20.2282 18.8417 18.8607 19.7226C17.4931 20.6036 16.8093 21.7991 16.8093 23.1835C16.8093 24.1274 17.1201 24.9454 17.6796 25.6376C18.2391 26.3298 19.0472 26.8961 20.1039 27.2736C21.1607 27.6512 22.4661 27.84 23.8958 27.84C25.0769 27.84 26.258 27.7141 27.3147 27.3995C28.3715 27.0849 29.3039 26.6444 30.112 26.141C30.9201 25.5747 31.4796 25.0713 31.9147 24.3161L32.1634 24.2532L32.1012 24.8825C32.1012 25.5117 32.2255 26.0151 32.4742 26.4556C32.7228 26.8961 33.0958 27.2107 33.5931 27.5253C34.0282 27.777 34.5877 27.9029 35.1472 27.9029C35.8309 27.9029 36.5147 27.777 37.1364 27.4624C37.8201 27.1478 38.2553 26.7073 38.5661 26.2039L37.385 25.1342Z" fill="black"/>
</svg>
