<svg width="69" height="37" viewBox="0 0 69 37" fill="none" xmlns="http://www.w3.org/2000/svg">
<path d="M34.5 37C25.4243 37 16.8459 35.1752 10.3811 31.7772C3.66757 28.3163 0 23.5969 0 18.5C0 13.4031 3.66757 8.68367 10.3811 5.22279C16.8459 1.82483 25.4243 0 34.5 0C43.5757 0 52.1541 1.82483 58.6189 5.22279C65.3324 8.68367 69 13.466 69 18.5629C69 23.6599 65.3324 28.3163 58.6189 31.8401C52.1541 35.1752 43.5757 37 34.5 37ZM34.5 2.45408C25.7973 2.45408 17.6541 4.21599 11.5 7.36224C5.65676 10.4456 2.42432 14.4099 2.42432 18.5C2.42432 22.5901 5.65676 26.5544 11.5 29.6378C17.5919 32.784 25.7973 34.5459 34.5 34.5459C43.2027 34.5459 51.3459 32.784 57.5 29.6378C63.3432 26.6173 66.5757 22.6531 66.5757 18.5C66.5757 14.3469 63.3432 10.4456 57.5 7.36224C51.3459 4.21599 43.2027 2.45408 34.5 2.45408Z" fill="black"/>
<path d="M50.2891 10.6343C51.035 11.0118 51.6567 11.6411 52.154 12.3962C52.6513 13.2142 52.9621 14.0952 53.0242 15.2278L50.9729 15.8571C50.8486 14.7244 50.4756 13.8435 49.7918 13.2142C49.108 12.585 48.2999 12.2703 47.2432 12.2703C46.1864 12.2703 45.3161 12.522 44.508 13.0884C43.7621 13.5918 43.1405 14.3469 42.7675 15.3537C42.3945 16.3605 42.1459 17.4931 42.1459 18.8145V26.4285H39.7837V10.6972H41.835L42.0215 13.5918C42.581 12.522 43.2648 11.6411 44.1972 11.0118C45.1296 10.3826 46.1864 10.068 47.4296 10.068C48.6107 10.005 49.481 10.1938 50.2891 10.6343Z" fill="black"/>
<path d="M37.2351 24.289C37.0486 24.5407 36.8 24.7924 36.4892 24.9811C36.3648 25.0441 36.2405 25.107 36.1162 25.1699C35.4946 25.4216 34.9351 25.2958 34.6243 24.9182C34.3756 24.6665 34.2513 24.3519 34.2513 23.9114V21.3944H31.9513L30.1486 22.9675C29.5892 23.4709 28.9054 23.8485 28.0973 24.1631C26.9162 24.6665 25.5486 24.9182 24.0567 24.9182C22.5027 24.9182 21.2594 24.6665 20.327 24.226C19.4567 23.7226 18.9594 23.0934 18.9594 22.2754C18.9594 21.4573 19.4567 20.7652 20.4513 20.2618C21.4459 19.7583 22.9378 19.3808 25.0513 19.1291L31.8892 18.5628C33.2567 18.4369 34.2513 17.3043 34.2513 15.9199V15.857C34.2513 14.6614 33.8783 13.5917 33.1946 12.7737C32.5108 11.8927 31.5162 11.2634 30.2729 10.76C29.0297 10.3196 27.6621 10.0679 26.1702 10.0679C24.7405 10.0679 23.4351 10.2566 22.1297 10.6971C20.8865 11.1376 19.7675 11.7039 18.8351 12.3332C17.9027 13.0254 17.281 13.7805 16.9702 14.5985L18.7108 15.7941C19.0216 15.1648 19.5189 14.5356 20.2027 14.0322C20.9486 13.4658 21.8189 13.0254 22.8756 12.7107C23.9324 12.3961 24.9892 12.2073 26.1081 12.2073C27.227 12.2073 28.2216 12.3332 29.0919 12.5849C29.9621 12.8366 30.7081 13.2141 31.2054 13.7175C31.7027 14.2209 31.9513 14.7873 31.9513 15.4165C31.9513 15.7941 31.827 16.0458 31.5783 16.2345C31.3297 16.4233 31.0189 16.5492 30.6459 16.5492L24.8648 17.1155C22.1297 17.4301 20.0783 17.9964 18.7108 18.8774C17.3432 19.7583 16.6594 20.9539 16.6594 22.3383C16.6594 23.2822 16.9702 24.1002 17.5297 24.7924C18.0892 25.4845 18.8973 26.0509 19.954 26.4284C21.0108 26.806 22.3162 26.9947 23.7459 26.9947C24.927 26.9947 26.1081 26.8689 27.1648 26.5543C28.2216 26.2396 29.154 25.7992 29.9621 25.2958C30.7702 24.7294 31.3297 24.226 31.7648 23.4709L32.0135 23.408L31.9513 24.0373C31.9513 24.6665 32.0756 25.1699 32.3243 25.6104C32.5729 26.0509 32.9459 26.3655 33.4432 26.6801C33.8783 26.9318 34.4378 27.0577 34.9973 27.0577C35.681 27.0577 36.3648 26.9318 36.9865 26.6172C37.6702 26.3026 38.1054 25.8621 38.4162 25.3587L37.2351 24.289Z" fill="black"/>
</svg>
