<svg width="1460" height="16" viewBox="0 0 1460 16" fill="none" xmlns="http://www.w3.org/2000/svg">
<path d="M1.42896 8.57397L8.50002 1.50291L15.5711 8.57397" stroke="black" stroke-width="2"/>
<path d="M14.429 8.57397L21.5 1.50291L28.5711 8.57397" stroke="black" stroke-width="2"/>
<path d="M27.429 8.57397L34.5 1.50291L41.5711 8.57397" stroke="black" stroke-width="2"/>
<path d="M40.429 8.57397L47.5 1.50291L54.5711 8.57397" stroke="black" stroke-width="2"/>
<path d="M53.429 8.57397L60.5 1.50291L67.5711 8.57397" stroke="black" stroke-width="2"/>
<path d="M66.429 8.57397L73.5 1.50291L80.5711 8.57397" stroke="black" stroke-width="2"/>
<path d="M79.429 8.57397L86.5 1.50291L93.5711 8.57397" stroke="black" stroke-width="2"/>
<path d="M92.429 8.57397L99.5 1.50291L106.571 8.57397" stroke="black" stroke-width="2"/>
<path d="M105.429 8.57397L112.5 1.50291L119.571 8.57397" stroke="black" stroke-width="2"/>
<path d="M118.429 8.57397L125.5 1.50291L132.571 8.57397" stroke="black" stroke-width="2"/>
<path d="M131.429 8.57397L138.5 1.50291L145.571 8.57397" stroke="black" stroke-width="2"/>
<path d="M144.429 8.57397L151.5 1.50291L158.571 8.57397" stroke="black" stroke-width="2"/>
<path d="M157.429 8.57397L164.5 1.50291L171.571 8.57397" stroke="black" stroke-width="2"/>
<path d="M170.429 8.57397L177.5 1.50291L184.571 8.57397" stroke="black" stroke-width="2"/>
<path d="M183.429 8.57397L190.5 1.50291L197.571 8.57397" stroke="black" stroke-width="2"/>
<path d="M196.429 8.57397L203.5 1.50291L210.571 8.57397" stroke="black" stroke-width="2"/>
<path d="M209.429 8.57397L216.5 1.50291L223.571 8.57397" stroke="black" stroke-width="2"/>
<path d="M222.429 8.57397L229.5 1.50291L236.571 8.57397" stroke="black" stroke-width="2"/>
<path d="M235.429 8.57397L242.5 1.50291L249.571 8.57397" stroke="black" stroke-width="2"/>
<path d="M248.429 8.57397L255.5 1.50291L262.571 8.57397" stroke="black" stroke-width="2"/>
<path d="M261.429 8.57397L268.5 1.50291L275.571 8.57397" stroke="black" stroke-width="2"/>
<path d="M274.429 8.57397L281.5 1.50291L288.571 8.57397" stroke="black" stroke-width="2"/>
<path d="M287.429 8.57397L294.5 1.50291L301.571 8.57397" stroke="black" stroke-width="2"/>
<path d="M300.429 8.57397L307.5 1.50291L314.571 8.57397" stroke="black" stroke-width="2"/>
<path d="M313.429 8.57397L320.5 1.50291L327.571 8.57397" stroke="black" stroke-width="2"/>
<path d="M326.429 8.57397L333.5 1.50291L340.571 8.57397" stroke="black" stroke-width="2"/>
<path d="M339.429 8.57397L346.5 1.50291L353.571 8.57397" stroke="black" stroke-width="2"/>
<path d="M352.429 8.57397L359.5 1.50291L366.571 8.57397" stroke="black" stroke-width="2"/>
<path d="M365.429 8.57397L372.5 1.50291L379.571 8.57397" stroke="black" stroke-width="2"/>
<path d="M378.429 8.57397L385.5 1.50291L392.571 8.57397" stroke="black" stroke-width="2"/>
<path d="M391.429 8.57397L398.5 1.50291L405.571 8.57397" stroke="black" stroke-width="2"/>
<path d="M404.429 8.57397L411.5 1.50291L418.571 8.57397" stroke="black" stroke-width="2"/>
<path d="M417.429 8.57397L424.5 1.50291L431.571 8.57397" stroke="black" stroke-width="2"/>
<path d="M430.429 8.57397L437.5 1.50291L444.571 8.57397" stroke="black" stroke-width="2"/>
<path d="M443.429 8.57397L450.5 1.50291L457.571 8.57397" stroke="black" stroke-width="2"/>
<path d="M456.429 8.57397L463.5 1.50291L470.571 8.57397" stroke="black" stroke-width="2"/>
<path d="M469.429 8.57397L476.5 1.50291L483.571 8.57397" stroke="black" stroke-width="2"/>
<path d="M482.429 8.57397L489.5 1.50291L496.571 8.57397" stroke="black" stroke-width="2"/>
<path d="M495.429 8.57397L502.5 1.50291L509.571 8.57397" stroke="black" stroke-width="2"/>
<path d="M508.429 8.57397L515.5 1.50291L522.571 8.57397" stroke="black" stroke-width="2"/>
<path d="M521.429 8.57397L528.5 1.50291L535.571 8.57397" stroke="black" stroke-width="2"/>
<path d="M534.429 8.57397L541.5 1.50291L548.571 8.57397" stroke="black" stroke-width="2"/>
<path d="M547.429 8.57397L554.5 1.50291L561.571 8.57397" stroke="black" stroke-width="2"/>
<path d="M560.429 8.57397L567.5 1.50291L574.571 8.57397" stroke="black" stroke-width="2"/>
<path d="M573.429 8.57397L580.5 1.50291L587.571 8.57397" stroke="black" stroke-width="2"/>
<path d="M586.429 8.57397L593.5 1.50291L600.571 8.57397" stroke="black" stroke-width="2"/>
<path d="M599.429 8.57397L606.5 1.50291L613.571 8.57397" stroke="black" stroke-width="2"/>
<path d="M612.429 8.57397L619.5 1.50291L626.571 8.57397" stroke="black" stroke-width="2"/>
<path d="M625.429 8.57397L632.5 1.50291L639.571 8.57397" stroke="black" stroke-width="2"/>
<path d="M638.429 8.57397L645.5 1.50291L652.571 8.57397" stroke="black" stroke-width="2"/>
<path d="M651.429 8.57397L658.5 1.50291L665.571 8.57397" stroke="black" stroke-width="2"/>
<path d="M664.429 8.57397L671.5 1.50291L678.571 8.57397" stroke="black" stroke-width="2"/>
<path d="M677.429 8.57397L684.5 1.50291L691.571 8.57397" stroke="black" stroke-width="2"/>
<path d="M690.429 8.57397L697.5 1.50291L704.571 8.57397" stroke="black" stroke-width="2"/>
<path d="M703.429 8.57397L710.5 1.50291L717.571 8.57397" stroke="black" stroke-width="2"/>
<path d="M716.429 8.57397L723.5 1.50291L730.571 8.57397" stroke="black" stroke-width="2"/>
<path d="M729.429 8.57397L736.5 1.50291L743.571 8.57397" stroke="black" stroke-width="2"/>
<path d="M742.429 8.57397L749.5 1.50291L756.571 8.57397" stroke="black" stroke-width="2"/>
<path d="M755.429 8.57397L762.5 1.50291L769.571 8.57397" stroke="black" stroke-width="2"/>
<path d="M768.429 8.57397L775.5 1.50291L782.571 8.57397" stroke="black" stroke-width="2"/>
<path d="M781.429 8.57397L788.5 1.50291L795.571 8.57397" stroke="black" stroke-width="2"/>
<path d="M794.429 8.57397L801.5 1.50291L808.571 8.57397" stroke="black" stroke-width="2"/>
<path d="M807.429 8.57397L814.5 1.50291L821.571 8.57397" stroke="black" stroke-width="2"/>
<path d="M820.429 8.57397L827.5 1.50291L834.571 8.57397" stroke="black" stroke-width="2"/>
<path d="M833.429 8.57397L840.5 1.50291L847.571 8.57397" stroke="black" stroke-width="2"/>
<path d="M846.429 8.57397L853.5 1.50291L860.571 8.57397" stroke="black" stroke-width="2"/>
<path d="M859.429 8.57397L866.5 1.50291L873.571 8.57397" stroke="black" stroke-width="2"/>
<path d="M872.429 8.57397L879.5 1.50291L886.571 8.57397" stroke="black" stroke-width="2"/>
<path d="M885.429 8.57397L892.5 1.50291L899.571 8.57397" stroke="black" stroke-width="2"/>
<path d="M898.429 8.57397L905.5 1.50291L912.571 8.57397" stroke="black" stroke-width="2"/>
<path d="M911.429 8.57397L918.5 1.50291L925.571 8.57397" stroke="black" stroke-width="2"/>
<path d="M924.429 8.57397L931.5 1.50291L938.571 8.57397" stroke="black" stroke-width="2"/>
<path d="M937.429 8.57397L944.5 1.50291L951.571 8.57397" stroke="black" stroke-width="2"/>
<path d="M950.429 8.57397L957.5 1.50291L964.571 8.57397" stroke="black" stroke-width="2"/>
<path d="M963.429 8.57397L970.5 1.50291L977.571 8.57397" stroke="black" stroke-width="2"/>
<path d="M976.429 8.57397L983.5 1.50291L990.571 8.57397" stroke="black" stroke-width="2"/>
<path d="M989.429 8.57397L996.5 1.50291L1003.57 8.57397" stroke="black" stroke-width="2"/>
<path d="M1002.43 8.57397L1009.5 1.50291L1016.57 8.57397" stroke="black" stroke-width="2"/>
<path d="M1015.43 8.57397L1022.5 1.50291L1029.57 8.57397" stroke="black" stroke-width="2"/>
<path d="M1028.43 8.57397L1035.5 1.50291L1042.57 8.57397" stroke="black" stroke-width="2"/>
<path d="M1041.43 8.57397L1048.5 1.50291L1055.57 8.57397" stroke="black" stroke-width="2"/>
<path d="M1054.43 8.57397L1061.5 1.50291L1068.57 8.57397" stroke="black" stroke-width="2"/>
<path d="M1067.43 8.57397L1074.5 1.50291L1081.57 8.57397" stroke="black" stroke-width="2"/>
<path d="M1080.43 8.57397L1087.5 1.50291L1094.57 8.57397" stroke="black" stroke-width="2"/>
<path d="M1093.43 8.57397L1100.5 1.50291L1107.57 8.57397" stroke="black" stroke-width="2"/>
<path d="M1106.43 8.57397L1113.5 1.50291L1120.57 8.57397" stroke="black" stroke-width="2"/>
<path d="M1119.43 8.57397L1126.5 1.50291L1133.57 8.57397" stroke="black" stroke-width="2"/>
<path d="M1132.43 8.57397L1139.5 1.50291L1146.57 8.57397" stroke="black" stroke-width="2"/>
<path d="M1145.43 8.57397L1152.5 1.50291L1159.57 8.57397" stroke="black" stroke-width="2"/>
<path d="M1158.43 8.57397L1165.5 1.50291L1172.57 8.57397" stroke="black" stroke-width="2"/>
<path d="M1171.43 8.57397L1178.5 1.50291L1185.57 8.57397" stroke="black" stroke-width="2"/>
<path d="M1184.43 8.57397L1191.5 1.50291L1198.57 8.57397" stroke="black" stroke-width="2"/>
<path d="M1197.43 8.57397L1204.5 1.50291L1211.57 8.57397" stroke="black" stroke-width="2"/>
<path d="M1210.43 8.57397L1217.5 1.50291L1224.57 8.57397" stroke="black" stroke-width="2"/>
<path d="M1223.43 8.57397L1230.5 1.50291L1237.57 8.57397" stroke="black" stroke-width="2"/>
<path d="M1236.43 8.57397L1243.5 1.50291L1250.57 8.57397" stroke="black" stroke-width="2"/>
<path d="M1249.43 8.57397L1256.5 1.50291L1263.57 8.57397" stroke="black" stroke-width="2"/>
<path d="M1262.43 8.57397L1269.5 1.50291L1276.57 8.57397" stroke="black" stroke-width="2"/>
<path d="M1275.43 8.57397L1282.5 1.50291L1289.57 8.57397" stroke="black" stroke-width="2"/>
<path d="M1288.43 8.57397L1295.5 1.50291L1302.57 8.57397" stroke="black" stroke-width="2"/>
<path d="M1301.43 8.57397L1308.5 1.50291L1315.57 8.57397" stroke="black" stroke-width="2"/>
<path d="M1314.43 8.57397L1321.5 1.50291L1328.57 8.57397" stroke="black" stroke-width="2"/>
<path d="M1327.43 8.57397L1334.5 1.50291L1341.57 8.57397" stroke="black" stroke-width="2"/>
<path d="M1340.43 8.57397L1347.5 1.50291L1354.57 8.57397" stroke="black" stroke-width="2"/>
<path d="M1353.43 8.57397L1360.5 1.50291L1367.57 8.57397" stroke="black" stroke-width="2"/>
<path d="M1366.43 8.57397L1373.5 1.50291L1380.57 8.57397" stroke="black" stroke-width="2"/>
<path d="M1379.43 8.57397L1386.5 1.50291L1393.57 8.57397" stroke="black" stroke-width="2"/>
<path d="M1392.43 8.57397L1399.5 1.50291L1406.57 8.57397" stroke="black" stroke-width="2"/>
<path d="M1405.43 8.57397L1412.5 1.50291L1419.57 8.57397" stroke="black" stroke-width="2"/>
<path d="M1418.43 8.57397L1425.5 1.50291L1432.57 8.57397" stroke="black" stroke-width="2"/>
<path d="M1431.43 8.57397L1438.5 1.50291L1445.57 8.57397" stroke="black" stroke-width="2"/>
<path d="M1444.43 8.57397L1451.5 1.50291L1458.57 8.57397" stroke="black" stroke-width="2"/>
</svg>
